<svg width="80" height="80" viewBox="0 0 80 80" fill="none" xmlns="http://www.w3.org/2000/svg">
<g clip-path="url(#clip0_227_6224)">
<path d="M41.169 46.9696C41.3553 46.9696 41.5417 46.9524 41.745 46.9696C42.3041 47.0041 42.8462 47.0386 43.3714 47.3487C43.8458 47.6416 44.3371 47.9001 44.7607 48.2619C45.3536 48.7788 45.7263 49.4508 46.0652 50.1745C46.4718 51.0532 46.421 51.9492 46.3363 52.8279C46.2854 53.3276 46.0652 53.8273 45.828 54.2752C45.4553 54.9989 44.9131 55.5847 44.2863 56.0844C43.9983 56.3084 43.6255 56.4462 43.3037 56.6185C43.2867 56.6358 43.2528 56.6185 43.2189 56.6358C42.3888 57.1871 41.457 57.0493 40.5421 57.101C39.7797 57.1354 39.1021 56.8425 38.4583 56.5324C37.8145 56.2222 37.2723 55.757 36.8488 55.1367C36.6794 54.8955 36.5099 54.6715 36.3405 54.4303C36.2389 54.2752 36.1711 54.1029 36.1033 53.9306C36.0695 53.8273 36.0695 53.7066 36.0186 53.6205C35.5273 52.8279 35.629 51.9664 35.7984 51.1393C36.0186 50.0366 36.5777 49.0717 37.4248 48.3308C37.8484 47.969 38.238 47.5555 38.814 47.4348C39.5426 46.9007 40.3727 46.9869 41.169 46.9696Z" fill="#A5E830"/>
<path d="M49.7247 38.1822C50.0466 38.1994 50.3176 38.2167 50.5887 38.2339C51.0123 38.2684 51.4697 38.2511 51.7916 38.5957C52.9267 39.0437 53.3333 39.6123 53.9093 40.4394C54.1635 40.8184 54.3668 41.232 54.5362 41.6627C54.6378 41.9039 54.6378 42.1969 54.6548 42.4725C54.6717 42.9378 54.7056 43.403 54.6717 43.8682C54.6378 44.4023 54.6717 44.9882 54.2651 45.4189C53.6721 46.7284 53.1978 47.3487 52.0457 48.0551C51.5036 48.3997 50.9106 48.6754 50.2499 48.6927C49.8094 48.6927 49.3858 48.7099 48.9454 48.7099C48.5387 48.6927 48.166 48.6582 47.7933 48.4342C47.4714 48.2447 47.0987 48.193 46.7768 47.9518C46.1161 47.4693 45.5231 46.8835 45.1673 46.2287C44.9132 45.7463 44.7607 45.2466 44.6591 44.7125C44.5066 43.9371 44.5574 43.2134 44.676 42.4381C44.7776 41.7489 45.0826 41.1803 45.4045 40.5772C45.9297 39.6295 46.7599 39.1126 47.6408 38.5957C48.3524 38.1822 49.0639 38.2684 49.7247 38.1822Z" fill="#A5E830"/>
<path d="M48.8437 33.1165C48.8437 33.375 48.8606 33.6334 48.8437 33.8747C48.8267 34.202 48.759 34.5122 48.6065 34.8223C47.9627 36.218 47.9458 36.2869 46.8445 37.2518C46.4888 37.5619 46.0991 37.8548 45.5908 37.9238C45.5061 37.941 45.4214 37.9238 45.3536 37.9755C44.7099 38.389 43.9983 38.2684 43.3037 38.2684C43.0326 38.2684 42.7615 38.2511 42.5243 38.0788C42.4566 38.0271 42.3719 37.9927 42.3041 37.9927C41.5756 37.9238 41.0165 37.493 40.4744 37.0623C40.0339 36.7004 39.5764 36.2869 39.3731 35.7183C39.2715 35.4426 38.9835 35.2875 38.9496 34.9429C38.9157 34.6845 38.7632 34.426 38.6955 34.1676C38.6446 34.0125 38.6108 33.8574 38.5938 33.6851C38.5769 33.3577 38.5769 33.0304 38.5769 32.703C38.5938 32.2895 38.6277 31.9104 38.831 31.5141C39.0174 31.1695 39.119 30.7732 39.3054 30.4114C39.5764 29.8945 39.9661 29.5154 40.3558 29.1191C40.7624 28.7228 41.2029 28.3782 41.7789 28.2576C42.6938 27.6545 43.7103 27.8441 44.6929 27.9302C45.1842 27.9647 45.6755 28.2231 46.116 28.4644C46.9462 28.8779 47.9288 29.9289 48.3524 30.7904C48.7251 31.4969 48.9623 32.2895 48.8437 33.1165Z" fill="#A5E830"/>
<path d="M34.8835 36.5626C35.1207 36.5626 35.3748 36.5453 35.612 36.5626C36.5608 36.6143 36.6455 36.6832 37.5265 37.269C37.95 37.5619 38.3227 37.8893 38.6955 38.2339C38.9665 38.4924 38.9665 38.9059 39.3054 39.0782C39.4748 39.6812 39.9153 40.1809 39.8645 40.8529C39.8306 41.2664 39.8475 41.6799 39.8814 42.0935C39.9322 42.9894 39.6103 43.7476 39.119 44.454C38.6616 45.1432 38.4752 45.4017 37.7128 45.9358C37.1199 46.3493 36.4761 46.7112 35.7137 46.6939C35.2732 46.6767 34.8496 46.6767 34.4091 46.7112C33.6129 46.7629 32.9521 46.4355 32.3083 46.0392C31.8509 45.7635 31.4612 45.4189 31.0716 45.0398C30.7836 44.7642 30.7666 44.3334 30.4447 44.1094C30.1567 43.4374 29.8348 42.7654 29.9026 41.9901C29.9195 41.7144 29.9195 41.4387 29.9026 41.163C29.8856 39.8191 30.4956 38.7853 31.3765 37.8548C31.8848 37.3207 32.5625 37.045 33.1724 36.6832C33.274 36.6143 33.4265 36.6143 33.5621 36.6143C34.0025 36.5798 34.4261 36.5626 34.8666 36.5453C34.8835 36.5453 34.8835 36.5453 34.8835 36.5626Z" fill="#A5E830"/>
<path d="M32.0203 50.9843C32.2067 51.7769 31.8509 52.4661 31.5459 53.1036C31.2579 53.7067 30.7666 54.1891 30.2075 54.5682C29.9534 54.7577 29.6993 54.9645 29.3604 54.9817C29.208 54.9817 29.0555 55.0851 28.903 55.154C28.1406 55.4814 27.3952 55.4986 26.6328 55.1196C26.5311 55.0679 26.4295 55.0162 26.3278 54.999C25.2774 54.8267 24.5828 54.103 23.9051 53.3621C23.7188 53.1726 23.5663 52.9486 23.4307 52.7246C23.2952 52.5006 23.1766 52.2593 23.058 52.0009C23.0072 51.8803 22.9903 51.7424 22.9564 51.6046C22.9394 51.5012 22.9564 51.3806 22.9055 51.2772C22.5498 50.4502 22.5328 49.6403 22.9225 48.8305C22.9225 48.3825 23.1766 48.0724 23.3799 47.7105C23.7357 47.1247 24.2609 46.7284 24.7522 46.2977C25.2774 46.1943 25.7179 45.8152 26.277 45.798C26.7853 45.7807 27.3274 45.7118 27.8018 45.8324C28.8013 46.0909 29.7162 46.4872 30.4786 47.2798C30.9021 47.7278 31.1732 48.2791 31.5629 48.7444C31.7831 49.5025 32.2236 50.1745 32.0203 50.9843Z" fill="#A5E830"/>
<path d="M54.011 57.8936C53.5705 57.8764 53.147 57.8591 52.7065 57.6007C52.4015 57.4111 52.0457 57.2733 51.7069 57.101C51.3511 56.9287 51.1139 56.6358 50.9106 56.3256C50.6734 55.9638 50.3515 55.6537 50.3685 55.154C50.0127 54.6371 50.0635 54.0512 50.0805 53.4826C50.0974 53.1036 50.0805 52.7073 50.3177 52.3799C50.3685 52.311 50.3685 52.2248 50.3854 52.1387C50.6226 51.0187 51.3342 50.2089 52.1474 49.4852C52.3846 49.2785 52.6726 49.1406 52.9267 48.9339C53.13 48.7788 53.3333 48.6582 53.5874 48.641C53.6891 48.6237 53.8246 48.6237 53.9093 48.572C54.5701 48.1413 55.3325 48.193 56.0271 48.3136C57.1453 48.5031 58.1279 48.9856 58.7547 50.0883C59.0427 50.6224 59.1783 51.191 59.4155 51.7424C59.5171 51.9836 59.4832 52.2938 59.4663 52.5522C59.4663 52.7762 59.4155 52.983 59.3646 53.207C59.2799 53.5516 59.1783 53.8962 59.0428 54.2235C58.8225 54.7749 58.5345 55.2918 58.1618 55.7398C57.806 56.1706 57.4163 56.5841 56.9589 56.877C56.6031 57.101 56.2643 57.3939 55.8238 57.4456C55.7221 57.4456 55.5866 57.4628 55.5188 57.5317C55.0783 57.928 54.5531 57.8764 54.011 57.8936Z" fill="#A5E830"/>
<path d="M28.7505 35.7872C28.5642 35.7872 28.3778 35.77 28.1745 35.7872C27.3613 35.8389 26.0229 35.0635 25.4807 34.3743C25.0233 33.7885 24.5997 33.151 24.5489 32.3584C24.532 32.1689 24.4642 31.9793 24.4303 31.7898C24.4134 31.6864 24.3456 31.5658 24.3626 31.4624C24.515 30.7388 24.4981 29.9806 24.8539 29.3086C25.0402 28.9813 25.1927 28.6367 25.413 28.3265C25.972 27.5512 26.7683 27.1032 27.5476 26.638C28.1576 26.569 28.7844 26.4829 29.3943 26.414C29.5299 26.3967 29.6654 26.4312 29.8009 26.4484C31.4104 26.5863 32.41 27.5684 33.1554 28.9296C33.2232 29.0502 33.2401 29.188 33.274 29.3259C33.3587 29.636 33.4434 29.9634 33.5112 30.2908C33.5451 30.4458 33.6129 30.6181 33.5959 30.7732C33.4943 31.5658 33.3926 32.3412 33.0029 33.0476C32.5286 33.9264 31.9525 34.5639 31.4612 34.9602C31.0207 35.3048 30.5125 35.4598 30.0381 35.6666C29.6484 35.8217 29.191 35.77 28.7505 35.8217C28.7505 35.8217 28.7505 35.8044 28.7505 35.7872Z" fill="#A5E830"/>
<path d="M42.3888 22.9507C42.3719 23.278 42.338 23.5882 42.321 23.8811C42.3041 24.4669 42.0161 24.9321 41.6942 25.3457C41.2706 25.9143 40.7793 26.4484 40.1186 26.7758C39.9322 26.8792 39.7459 26.9653 39.5426 27.0342C39.3901 27.0859 39.2207 27.0859 39.0682 27.1548C38.1872 27.5684 37.3062 27.5167 36.4083 27.1548C36.0186 26.9998 35.612 26.8792 35.2393 26.6379C34.6463 26.2589 34.172 25.7592 33.7823 25.2078C33.5112 24.8288 33.3418 24.3119 33.274 23.8466C33.1893 23.347 33.1554 22.7784 33.291 22.2959C33.6298 21.1587 34.2058 20.1421 35.2732 19.4874C35.7645 19.1773 36.3067 19.0739 36.781 18.781C36.9166 18.6948 37.1029 18.712 37.2554 18.6948C38.0347 18.6776 38.831 18.5397 39.5256 19.005C40.1186 19.0566 40.5252 19.4874 40.9826 19.8148C41.5587 20.2111 41.8128 20.8658 42.2025 21.4172C42.2533 21.5033 42.2702 21.6239 42.2702 21.7273C42.338 22.1581 42.3549 22.5716 42.3888 22.9507Z" fill="#A5E830"/>
<path d="M58.4837 40.4221C58.382 40.4221 58.2634 40.4221 58.1618 40.4221C57.2808 40.4738 56.5693 40.0431 55.9085 39.5262C55.5188 39.216 54.7903 38.2511 54.6379 37.8031C54.3329 36.9244 54.0449 36.0284 54.1974 35.0808C54.2313 34.9257 54.2651 34.7706 54.316 34.6156C54.3668 34.4605 54.4515 34.3226 54.4854 34.1503C54.6887 33.0476 55.4341 32.3412 56.2474 31.7209C56.5862 31.4452 57.0775 31.3073 57.518 31.2212C57.9924 31.135 58.5176 31.1178 58.975 31.2384C59.5849 31.4107 60.1779 31.6864 60.6692 32.1344C61.1775 32.5824 61.5841 33.1165 61.889 33.7024C62.1262 34.1503 62.2448 34.6672 62.3295 35.1669C62.4481 35.8217 62.4989 36.5109 62.2618 37.1312C62.0923 37.5964 62.0246 38.1133 61.6857 38.544C61.3638 38.9403 61.1097 39.3711 60.6862 39.6812C60.0932 40.1465 59.6188 40.3705 58.9581 40.4049C58.8056 40.4049 58.6531 40.4049 58.4837 40.4221C58.4837 40.4049 58.4837 40.4049 58.4837 40.4221Z" fill="#A5E830"/>
<path d="M47.2681 56.9976C47.6747 57.0321 48.0982 56.9976 48.471 57.1355C48.8437 57.2733 49.2503 57.3422 49.5891 57.549C49.9788 57.7902 50.3176 58.1176 50.6226 58.4622C50.9953 58.893 51.3172 59.3582 51.3342 59.9785C51.3342 60.1163 51.3511 60.2542 51.3681 60.392C51.5036 61.7532 50.9106 62.8042 50.0127 63.7002C49.4536 64.2688 48.759 64.6479 48.0305 64.8719C47.4544 65.0614 46.8107 65.0442 46.1838 65.0786C45.9127 65.0959 45.6416 65.0442 45.3706 65.027C44.2355 64.958 43.0665 64.1654 42.4566 63.1489C42.4057 63.0627 42.3549 62.9593 42.338 62.8559C42.2363 62.184 41.9991 61.512 42.2363 60.8228C42.2363 59.72 43.3206 58.5828 44.0322 57.997C44.5574 57.8764 44.8962 57.325 45.4722 57.3595C46.0144 56.9976 46.6582 57.0493 47.2681 56.9976Z" fill="#A5E830"/>
<path d="M52.3338 21.5895C52.7912 21.6239 53.2825 21.6067 53.723 21.8996C54.7734 22.1064 55.4342 22.8645 56.078 23.6399C56.349 23.9672 56.6201 24.3119 56.654 24.7771C56.6709 24.9149 56.7048 25.0528 56.7726 25.1734C57.1284 25.6903 57.0606 26.2761 57.0267 26.8447C57.0267 26.9825 57.0098 27.1376 56.942 27.241C56.654 27.7234 56.5693 28.3093 56.1966 28.7573C55.7391 29.3259 55.2139 29.8083 54.4685 29.9634C54.2821 29.9978 54.0957 30.0495 53.9263 30.1184C53.452 30.2735 52.9776 30.308 52.5032 30.1012C52.3846 30.0495 52.2491 29.9978 52.1135 29.9806C51.4358 29.9461 50.9276 29.5671 50.4193 29.1536C49.9111 28.7573 49.5044 28.292 49.1825 27.7234C48.9454 27.3271 48.8945 26.9309 48.7421 26.5173C48.454 25.7247 48.454 24.9666 48.7759 24.2085C48.7759 23.6399 49.1826 23.278 49.4706 22.8645C49.7586 22.451 50.1652 22.1236 50.6735 21.9685C50.7751 21.9341 50.8937 21.9168 50.9784 21.8652C51.385 21.6067 51.8425 21.6067 52.3338 21.5895Z" fill="#A5E830"/>
<path d="M21.4316 44.5574C21.3977 44.5574 21.3808 44.5574 21.3469 44.5574C20.449 44.6263 19.6866 44.2645 18.9073 43.5753C18.2296 42.9722 17.7721 42.2313 17.6027 41.3181C17.5688 41.1286 17.5011 40.9563 17.4333 40.7668C17.2469 40.2843 17.2808 39.8019 17.4164 39.3194C17.4841 39.061 17.5688 38.7853 17.6366 38.5268C17.9246 37.5619 18.4159 36.7521 19.28 36.2352C19.5341 36.0801 19.7035 35.8044 20.0254 35.7872C20.5845 35.77 21.1436 35.5632 21.7196 35.6838C21.7535 35.6838 21.7705 35.7011 21.8043 35.7011C23.1936 35.7355 24.0237 36.6315 24.7184 37.717C24.9386 38.0616 25.108 38.4234 25.125 38.8542C25.125 39.0437 25.2266 39.216 25.2774 39.4056C25.4299 39.9225 25.4469 40.4394 25.2605 40.9391C25.1927 41.1114 25.125 41.3009 25.108 41.4904C24.9894 42.4726 24.4134 43.179 23.6849 43.7476C23.4816 43.9027 23.3291 44.1094 23.0411 44.2128C22.2448 44.523 22.2448 44.5574 21.4316 44.5574Z" fill="#A5E830"/>
<path d="M59.0767 45.8669C59.0767 45.5912 59.0767 45.3155 59.0767 45.0398C59.0767 44.7986 59.1105 44.5574 59.2461 44.3334C59.3308 44.1955 59.3985 44.0405 59.4494 43.8854C59.7713 42.9722 60.1609 42.1796 61.1775 41.4559C62.0246 40.8356 63.0072 40.5255 63.9899 40.8184C64.8539 41.0769 65.7179 41.5421 66.0568 42.5414C66.1076 42.662 66.1923 42.7827 66.2431 42.9033C66.3279 43.11 66.4295 43.2996 66.4634 43.5063C66.5989 44.4712 66.5989 45.4361 66.4465 46.3838C66.3787 46.7629 65.7518 48.0551 65.4808 48.3308C65.125 48.6927 64.8031 49.0717 64.3795 49.3646C63.4816 50.0194 62.482 50.1572 61.4655 49.8816C60.8217 49.7093 60.2795 49.2613 59.856 48.6927C59.5171 48.2274 59.3477 47.6761 59.1275 47.1764C58.9581 46.7973 59.0428 46.3149 59.0089 45.8669C59.0597 45.8669 59.0767 45.8669 59.0767 45.8669Z" fill="#A5E830"/>
<path d="M33.4604 56.5324C33.7653 56.5497 34.0195 56.5841 34.2567 56.5669C35.019 56.5496 35.629 56.877 36.2558 57.2906C36.7471 57.6007 37.1537 57.9453 37.4926 58.4278C37.7806 58.824 38.0686 59.2548 38.1533 59.72C38.255 60.3403 38.2211 60.9778 38.1533 61.6153C38.1194 61.891 37.8992 62.1323 37.7636 62.4079C37.4756 62.9593 36.9843 63.2867 36.5269 63.683C35.8492 63.8553 35.2562 64.3033 34.5277 64.2171C34.155 64.1654 33.7653 64.1999 33.3926 64.1827C33.0877 64.1654 32.7997 64.1137 32.5455 63.9414C32.4269 63.8725 32.3083 63.7691 32.1897 63.7691C31.8509 63.7691 31.6645 63.5279 31.4274 63.3728C30.6989 62.8732 30.1059 62.2529 29.7332 61.4603C29.5299 61.0295 29.5129 60.4954 29.496 60.0129C29.4621 58.8413 29.9026 57.8936 30.8683 57.2389C31.3427 56.9115 31.8509 56.5841 32.4947 56.6013C32.8166 56.5841 33.1724 56.5497 33.4604 56.5324Z" fill="#A5E830"/>
<path d="M47.3359 20.4351C47.1157 20.4178 46.8954 20.4178 46.6752 20.4006C45.3876 20.3489 44.4219 19.6769 43.5748 18.7637C43.1851 18.333 42.9479 17.7988 42.7785 17.2819C42.5752 16.6616 42.5244 15.9724 42.8971 15.3694C43.0835 15.0765 43.1343 14.7319 43.3884 14.4562C44.0322 13.7497 44.7607 13.3017 45.6248 13.2501C46.133 13.2156 46.6582 13.2328 47.1665 13.2328C48.3694 13.2501 49.2673 13.9048 50.0974 14.7146C50.3855 14.9903 50.5718 15.3521 50.7921 15.6967C50.8598 15.8001 50.8937 15.938 50.9276 16.0758C50.9615 16.2137 50.9276 16.3687 50.9954 16.4893C51.2834 17.0579 51.1478 17.5748 50.9954 18.1434C50.7582 19.005 50.216 19.5219 49.5384 20.0043C48.8268 20.4523 48.0813 20.4006 47.3359 20.4351Z" fill="#A5E830"/>
<path d="M39.9661 71.3677C39.424 71.316 38.8818 71.316 38.3566 71.1781C37.6959 71.0058 37.069 70.6957 36.5608 70.196C36.4083 70.0409 36.2728 69.9031 36.1203 69.7308C35.4765 69.0071 35.5443 68.1456 35.7476 67.3186C35.8323 66.9739 36.1372 66.681 36.3744 66.4053C36.7641 65.9918 37.2554 65.6817 37.7467 65.4405C38.2042 65.2165 38.7124 65.0786 39.2207 65.0269C39.7798 64.958 40.3558 64.9752 40.9149 65.0269C41.3893 65.0786 41.8128 65.3888 42.3211 65.3888C42.914 65.8023 43.524 66.1297 43.9983 66.75C44.5405 67.4736 44.4897 68.2318 44.3202 69.0071C44.2186 69.5068 43.812 69.8859 43.4393 70.2132C42.9818 70.6268 42.3888 70.8507 41.8298 71.1264C41.762 71.1609 41.6773 71.1609 41.5926 71.1781C41.0504 71.2643 40.5083 71.316 39.9661 71.3677Z" fill="#A5E830"/>
<path d="M16.4676 52.9312C15.5019 53.0002 14.9089 52.5866 14.0279 51.8802C13.6213 51.5528 12.9267 50.5707 12.8251 50.1055C12.6895 49.4163 12.2999 48.7788 12.3846 48.0379C12.4185 47.6933 12.3676 47.3142 12.6048 47.0041C12.6726 46.9179 12.6726 46.7973 12.6895 46.6939C12.7234 46.1943 13.0961 45.8497 13.3842 45.5395C13.6891 45.1949 14.1296 44.9365 14.6548 44.8675C15.2308 44.7986 15.7899 44.8331 16.349 44.9709C16.6031 45.0226 16.8403 45.1949 17.0436 45.3672C17.6705 45.8497 18.2126 46.401 18.6023 47.1419C18.8734 47.6933 18.975 48.2619 19.1953 48.8132C19.3477 49.1751 19.3647 49.5714 19.28 49.9504C19.1783 50.4673 19.0767 50.9842 18.8395 51.4495C18.6362 51.8457 18.3312 52.1903 17.9585 52.466C17.3486 52.8968 17.2469 52.9312 16.4676 52.9312Z" fill="#A5E830"/>
<path d="M22.8716 62.4079C22.5498 62.4079 22.2279 62.3907 21.9398 62.1839C21.8721 62.1322 21.7874 62.0978 21.7196 62.0978C20.9911 62.0633 20.5167 61.5636 19.9746 61.1673C19.5171 60.84 19.2122 60.3575 18.9072 59.8751C18.7886 59.6683 18.6192 59.4788 18.5515 59.2548C18.399 58.7896 18.2973 58.3071 18.1957 57.8247C18.1618 57.7041 18.1957 57.549 18.2296 57.4284C18.2634 57.2733 18.3651 57.1182 18.382 56.9632C18.5515 56.1189 19.1105 55.6364 19.8221 55.2574C20.6184 54.8438 21.3977 54.8438 22.2109 55.2057C22.6006 55.378 22.9902 55.5331 23.363 55.7571C24.1084 56.1706 24.7353 56.9804 25.108 57.5662C25.5146 58.2037 25.4976 58.9274 25.7179 59.5822C25.7518 59.7028 25.7179 59.8578 25.684 59.9785C25.6501 60.1335 25.5485 60.2886 25.5485 60.4437C25.4976 61.1157 25.0063 61.4603 24.6167 61.891C24.5828 61.9255 24.532 61.9599 24.4811 61.9944C24.1592 62.115 23.8373 62.2528 23.4985 62.339C23.3121 62.4079 23.0919 62.3907 22.8716 62.4079Z" fill="#A5E830"/>
<path d="M68.9877 30.7904C68.9877 31.0661 69.0047 31.3418 68.9877 31.6175C68.9539 32.5479 68.4964 33.2371 67.8187 33.8229C67.6154 33.9952 67.4291 34.0986 67.1919 34.1331C66.6159 34.2365 66.0568 34.1848 65.4977 34.1158C65.0741 34.0642 64.7692 33.7712 64.4473 33.5473C63.956 33.1854 63.5663 32.6685 63.3122 32.1171C63.058 31.583 62.787 31.0489 62.77 30.4286C62.7531 29.7049 62.7192 28.9985 62.787 28.2748C62.8547 27.3788 63.4477 26.8275 64.0068 26.2589C64.6675 26.1038 65.2944 25.5869 66.0059 26.0694C66.0229 26.0866 66.0568 26.1038 66.0737 26.1038C66.7514 26.1383 67.1411 26.6207 67.5985 27.0342C68.2592 27.6373 68.5981 28.4471 68.903 29.2397C69.0725 29.7049 69.0216 30.2735 69.0555 30.7904C69.0216 30.7904 69.0047 30.7904 68.9877 30.7904Z" fill="#A5E830"/>
<path d="M19.7713 29.7394C19.7543 30.0668 19.7882 30.4114 19.7035 30.7215C19.3308 32.0138 18.7209 33.1337 17.4502 33.8057C16.7048 34.202 15.9932 34.1676 15.2647 34.047C14.7395 33.9608 14.3329 33.5473 13.9941 33.1165C13.5027 32.4962 13.1809 31.3763 13.2147 30.6009C13.2317 30.3597 13.3164 30.1185 13.3672 29.8945C13.3842 29.8083 13.4519 29.7394 13.4519 29.6705C13.4011 29.0502 13.8077 28.6022 14.0618 28.1025C14.2651 27.689 14.6717 27.3961 15.0106 27.0515C15.4511 26.6035 16.044 26.5001 16.5862 26.2761C16.925 26.1383 17.3147 26.19 17.6874 26.3795C18.1618 26.6035 18.6531 26.8103 18.975 27.2582C19.0936 27.4133 19.28 27.5339 19.3139 27.689C19.4155 28.137 19.7882 28.4988 19.7374 28.9985C19.7035 29.2397 19.7374 29.4982 19.7374 29.7394C19.7543 29.7394 19.7713 29.7394 19.7713 29.7394Z" fill="#A5E830"/>
<path d="M57.5349 64.5272C56.942 64.6478 56.4676 64.286 55.9424 64.0792C55.7899 63.8035 55.468 63.6657 55.3494 63.3383C55.1631 62.8214 54.9259 62.3217 55.0614 61.7531C55.1631 61.3052 55.2647 60.8399 55.485 60.4437C55.8746 59.72 56.3321 59.048 57.0267 58.5483C57.3486 58.3071 57.7213 58.152 58.0263 57.9108C58.2296 57.7385 58.5006 57.6696 58.7378 57.5662C58.8564 57.5145 58.992 57.4801 59.1275 57.4628C59.4155 57.4456 59.7205 57.4628 60.0254 57.4284C60.7031 57.3422 61.2283 57.6351 61.6857 58.0831C62.0584 58.445 62.3295 58.8585 62.3803 59.4098C62.4651 60.3747 62.2109 61.2362 61.6518 62.0288C61.2791 62.5457 60.8386 62.9937 60.3981 63.4417C60.1779 63.6485 59.9068 63.6657 59.7205 63.838C59.5172 64.0275 59.28 64.1137 59.0258 64.2171C58.5345 64.3894 58.0771 64.6134 57.5349 64.5272Z" fill="#A5E830"/>
<path d="M27.7171 64.1137C28.0729 64.1999 28.4456 64.286 28.8014 64.3722C28.9538 64.4066 29.1063 64.4755 29.2757 64.4928C30.648 64.7512 31.546 65.6817 32.3422 66.7327C32.6133 67.4736 32.6641 68.2317 32.3931 68.9899C31.9865 69.4034 31.6815 69.9375 31.0208 69.9892C30.8344 70.0064 30.6311 70.0409 30.4786 70.1098C29.9873 70.351 29.479 70.2994 28.9877 70.1443C28.8861 70.1098 28.7844 70.0409 28.6828 70.0409C28.022 70.0926 27.4799 69.7135 26.9547 69.4378C26.3448 69.1277 25.8535 68.628 25.413 68.0767C25.0741 67.6287 24.9386 67.1118 24.8031 66.5949C24.6845 66.1813 25.0233 65.3371 25.3791 65.0269C25.684 64.7685 25.989 64.5445 26.3956 64.4239C26.8191 64.3032 27.2427 64.1482 27.7171 64.1137Z" fill="#A5E830"/>
<path d="M64.0407 22.0719C64.1932 23.1058 63.5494 23.795 62.7023 24.3808C62.6006 24.4497 62.4481 24.5014 62.3295 24.5014C61.889 24.5186 61.4486 24.5531 61.0419 24.4842C60.7031 24.4325 60.3812 24.2774 60.0932 24.1051C59.3477 23.6744 58.7039 23.1058 58.2465 22.3476C57.9246 21.8307 57.7721 21.2449 57.5858 20.6935C57.4163 20.2111 57.3994 19.6597 57.6874 19.1773C57.8907 18.8327 57.9415 18.4364 58.2804 18.1262C58.9581 17.5059 59.9915 17.2475 60.7878 17.6438C61.1436 17.8333 61.5333 17.9194 61.8721 18.1607C62.6853 18.712 63.2614 19.4185 63.6849 20.3317C63.9221 20.8658 64.0407 21.3827 64.0407 22.0719Z" fill="#A5E830"/>
<path d="M27.2088 21.1587C27.2088 21.2621 27.2088 21.3827 27.2088 21.4861C27.2596 22.3648 26.853 23.0713 26.277 23.6571C25.9382 24.0017 25.6163 24.3291 25.1758 24.6048C24.7353 24.8805 24.2948 25.0011 23.8035 25.0183C23.4816 25.0355 23.1597 25.0355 22.8378 25.0011C21.9398 24.9322 21.2622 24.4152 20.9064 23.5537C20.8556 23.4331 20.7878 23.3125 20.737 23.1919C20.5167 22.7439 20.4998 22.2787 20.6692 21.8307C20.8556 21.331 20.9741 20.7969 21.313 20.3317C21.6518 19.8837 22.1262 19.384 22.5836 19.0566C23.058 18.6948 23.634 18.6431 24.1423 18.4364C24.2101 18.4019 24.2948 18.4019 24.3795 18.4019C25.0741 18.4536 25.7518 18.5397 26.3278 19.0222C26.8361 19.4357 27.1749 19.9182 27.1919 20.5901C27.1919 20.7797 27.2088 20.9692 27.2258 21.1587H27.2088Z" fill="#A5E830"/>
<path d="M67.2257 39.0265C67.2427 38.768 67.2427 38.4062 67.2935 38.0444C67.3952 37.2173 67.9373 36.2352 68.4795 35.7011C69.1402 35.0635 70.4786 34.8568 71.3596 35.8561C71.8171 36.373 72.2745 36.9416 72.2576 37.717C72.2576 37.8548 72.2914 37.9927 72.3423 38.1133C72.6133 38.7853 72.6303 39.44 72.3253 40.112C72.2745 40.2154 72.2745 40.3187 72.2576 40.4393C72.1728 41.3525 71.6646 42.0073 71.0377 42.6448C70.7666 42.9205 70.4447 42.8688 70.1737 43.0411C69.8687 43.2479 69.5807 43.0756 69.2588 43.0066C68.327 42.7827 67.9712 42.1107 67.5985 41.3181C67.2935 40.5772 67.2596 39.8708 67.2257 39.0265Z" fill="#A5E830"/>
<path d="M69.0216 52.4144C69.0216 52.5695 69.0216 52.6212 69.0216 52.6728C69.0724 53.4999 68.8522 54.2408 68.4456 54.93C68.1576 55.4297 67.8696 55.9293 67.3952 56.3084C66.9716 56.6358 66.6158 57.0321 66.0568 57.1355C65.8196 57.1699 65.6163 57.325 65.3791 57.3939C64.8539 57.5318 64.3795 57.2905 64.0407 56.9804C63.5663 56.5669 63.1427 56.0327 63.1597 55.3091C63.1597 54.9472 63.1597 54.6026 63.1597 54.2408C63.1597 54.0685 63.1597 53.8962 63.2274 53.7583C63.5832 53.0174 63.7526 52.1732 64.3456 51.5356C64.8369 50.9843 65.2435 50.6569 65.8365 50.2778C66.3109 49.9849 66.7853 49.9677 67.2935 49.9332C67.7848 49.8988 68.1406 50.1745 68.4286 50.4674C68.7167 50.7775 69.0555 51.1566 69.0047 51.6907C68.9708 51.9492 69.0216 52.2249 69.0216 52.4144Z" fill="#A5E830"/>
<path d="M52.4015 65.3371C52.6387 65.3371 52.8928 65.3543 53.13 65.3371C53.8755 65.2854 54.3668 65.7506 54.8412 66.233C54.892 66.2847 54.9428 66.3536 54.9598 66.4398C54.9936 66.5432 55.0106 66.6638 55.0106 66.7672C54.9936 67.2324 54.9598 67.6976 54.9428 68.1628C54.587 68.5936 54.2821 69.0932 53.8585 69.4551C53.3333 69.9031 52.7742 70.351 52.0627 70.4544C51.3003 70.9541 50.4532 70.8335 49.623 70.799C48.9454 70.7646 47.9966 70.0926 47.7255 69.2655C47.6578 69.0588 47.6239 68.8003 47.7086 68.6108C47.9288 68.1283 47.9797 67.5597 48.3863 67.1635C48.9792 66.5949 49.5553 65.9746 50.3854 65.7506C50.9953 65.2854 51.7069 65.3543 52.4015 65.3371Z" fill="#A5E830"/>
<path d="M31.9187 17.4198C30.8513 17.3509 29.8856 16.8339 29.3096 15.6623C29.0894 15.2143 29.0555 14.6974 29.2588 14.3011C29.4621 13.9048 29.5638 13.4396 29.9195 13.1122C30.1906 12.871 30.4447 12.6125 30.7497 12.3885C31.2749 11.9922 31.9017 11.9406 32.4608 11.7166C32.8335 11.5787 33.2571 11.596 33.6468 11.7855C33.8162 11.8716 34.0025 11.9061 34.1889 11.9578C35.1715 12.2335 35.8662 13.0605 35.8492 13.991C35.8492 14.1633 35.8323 14.3183 35.8323 14.4906C35.8323 15.4211 35.3071 16.0586 34.6294 16.5755C34.2736 16.8512 33.8839 17.1269 33.3926 17.1441C33.0199 17.4542 32.5455 17.4025 31.9187 17.4198Z" fill="#A5E830"/>
<path d="M41.457 12.0267C41.1182 11.9406 40.7793 11.8716 40.4405 11.7855C40.305 11.751 40.1864 11.6821 40.0508 11.6649C39.3731 11.6132 38.8649 11.1997 38.4244 10.7345C38.0347 10.3382 37.7298 9.85571 37.7637 9.21819C37.7975 8.44282 38.2211 7.87422 38.7971 7.49516C39.2037 7.21947 39.6273 6.8921 40.1864 6.94379C40.5591 6.97825 40.881 6.61641 41.2707 6.70256C41.6095 6.77149 41.9483 6.92656 42.2872 6.94379C42.9818 6.99548 43.507 7.37455 44.0661 7.75361C44.7946 8.27052 44.8962 8.95973 44.8624 9.73509C44.8454 10.3726 44.5066 10.8551 43.9475 11.1824C43.7103 11.3203 43.507 11.5443 43.2698 11.596C42.6599 11.6993 42.1178 12.0956 41.457 12.0267Z" fill="#A5E830"/>
<path d="M10.8768 35.4081C11.4528 35.4081 12.3846 35.8906 12.6895 36.442C12.9437 36.9072 13.3333 37.3379 13.2317 37.941C13.5028 38.6646 13.3503 39.3711 13.2486 40.112C13.1131 41.1113 12.5709 41.8178 11.8086 42.3174C11.3003 42.662 10.6396 42.6276 10.0974 42.3347C9.41974 41.9728 9.04702 41.2836 8.70818 40.6289C8.62347 40.4393 8.65735 40.1981 8.62347 39.9741C8.5557 39.6468 8.42017 39.3366 8.42017 39.0092C8.42017 38.6819 8.53876 38.3717 8.60653 38.0444C8.62347 37.9927 8.62347 37.941 8.62347 37.8721C8.62347 37.0795 9.0809 36.4764 9.58916 35.9767C9.928 35.6666 10.3516 35.3909 10.8768 35.4081Z" fill="#A5E830"/>
<path d="M57.2808 15.3866C56.8403 15.4038 56.3659 15.4555 55.8746 15.4383C54.4007 15.4038 53.3672 14.6285 52.5032 13.4741C51.978 12.7848 52.0288 12.0439 52.1135 11.2858C52.1643 10.7861 52.5879 10.5277 53.0114 10.3209C53.2825 10.2003 53.5705 10.0969 53.8585 10.0452C54.0618 10.0108 54.2821 10.028 54.4854 10.0625C54.6379 10.0797 54.7903 10.2175 54.9428 10.2175C56.0271 10.3037 56.7556 10.9757 57.4841 11.6993C57.8229 12.0267 58.0093 12.4575 58.1957 12.8538C58.399 13.319 58.3481 13.8876 58.2126 14.3873C58.1448 14.594 57.9246 14.7663 57.7552 14.9386C57.6196 15.1109 57.4672 15.2143 57.2808 15.3866Z" fill="#A5E830"/>
<path d="M74.6633 46.1081C74.6463 46.7456 74.6294 47.2108 74.3922 47.6933C74.1889 48.1068 74.1211 48.572 73.9348 49.0028C73.6298 49.7092 73.1046 50.1745 72.5794 50.6569C72.4439 50.7775 72.1897 50.7947 71.9695 50.812C71.6815 50.8292 71.3257 50.8981 71.1055 50.6741C70.8683 50.4329 70.5972 50.2089 70.5125 49.8299C70.3939 49.3302 70.1228 48.8822 70.1567 48.3308C70.1737 47.8828 70.1906 47.4521 70.36 47.0385C70.4447 46.8145 70.4956 46.5561 70.5464 46.3149C70.7327 45.4706 71.1732 44.7641 71.7662 44.1611C72.1728 43.7475 72.6641 43.6097 73.2401 43.6442C73.7145 43.6614 73.9178 44.0232 74.1889 44.2989C74.3583 44.9537 74.8327 45.5223 74.6633 46.1081Z" fill="#A5E830"/>
<path d="M21.7874 67.1635C21.3808 67.9216 20.8217 67.8871 20.2795 67.9044C19.2461 67.9388 18.4329 67.4736 17.6705 66.8533C17.2978 66.5432 16.9928 66.1813 16.6709 65.8367C16.654 65.8195 16.0441 64.7512 16.0441 64.7168C16.0271 64.3033 15.9932 63.8897 16.0102 63.4934C16.0271 63.2177 16.1965 63.0282 16.4337 62.8559C17.0945 62.3735 17.7721 62.3218 18.4837 62.7008C18.6023 62.7698 18.7209 62.8042 18.8564 62.8559C19.6357 63.0971 20.8895 64.131 21.3638 64.8891C21.9907 65.9057 21.889 66.3364 21.7874 67.1635Z" fill="#A5E830"/>
<path d="M41.8806 74.8654C41.8467 74.6414 41.7959 74.4691 41.7789 74.314C41.7281 73.8316 41.8297 73.4181 42.2194 73.0734C42.5074 72.8322 42.7446 72.591 43.1004 72.4187C43.5917 72.1947 44.1 72.0396 44.6252 71.919C45.0995 71.8156 45.557 71.7123 46.0483 71.6606C46.726 71.5916 47.319 71.8846 47.9289 72.0569C48.6574 72.2636 49.0132 73.0562 48.759 73.7799C48.6743 74.0383 48.4371 74.2623 48.2508 74.4863C48.1661 74.5897 48.0305 74.6586 47.9289 74.7103C47.4206 74.986 46.9293 75.3478 46.3194 75.434C46.1838 75.4512 46.0314 75.4512 45.9297 75.5201C45.3706 75.813 44.7776 75.7786 44.1847 75.7614C43.4223 75.7269 42.7107 75.5029 42.1008 75.0032C42.05 74.9515 41.9822 74.9171 41.8806 74.8654Z" fill="#A5E830"/>
<path d="M13.7399 59.5305C12.9267 59.6339 12.4354 59.2376 11.978 58.9102C11.2495 58.3933 10.7581 57.6352 10.4024 56.8253C10.1991 56.3429 10.216 55.7571 10.1821 55.2057C10.1652 54.9645 10.2329 54.7232 10.2668 54.4648C10.3346 54.034 10.6904 53.6894 11.1139 53.6033C11.8933 53.4654 12.5879 53.655 13.1978 54.1891C13.8585 54.7577 14.4007 55.4297 14.7226 56.2395C14.9428 56.8081 14.9767 57.4629 14.9259 58.1004C14.9089 58.2038 14.8581 58.3244 14.8751 58.4278C14.892 58.8413 14.6209 59.0481 14.3837 59.3065C14.1465 59.6167 13.8416 59.5133 13.7399 59.5305Z" fill="#A5E830"/>
<path d="M15.6205 21.0037C15.6713 21.3655 15.468 21.7273 15.3494 22.1236C15.18 22.7439 14.8073 23.2436 14.4346 23.7261C13.9941 24.3119 13.3503 24.6048 12.6895 24.846C12.4354 24.9494 12.1643 24.9149 11.9102 24.7771C11.4697 24.5359 11.0462 24.2947 11.0292 23.7088C11.0292 23.5882 10.9106 23.4676 10.8767 23.3298C10.8429 23.1747 10.7581 22.9852 10.809 22.8473C11.0631 22.1409 11.1478 21.3655 11.6052 20.7452C12.0627 20.1249 12.6048 19.608 13.2825 19.2462C13.9941 18.8843 14.8242 19.16 15.2986 19.8492C15.5697 20.1938 15.6205 20.5384 15.6205 21.0037Z" fill="#A5E830"/>
<path d="M32.122 72.6082C32.2745 72.5221 32.393 72.4532 32.4947 72.367C32.7658 72.1086 33.0877 71.9879 33.4434 71.9879C33.9009 71.9879 34.3075 71.6606 34.7819 71.7467C35.2054 71.8329 35.629 71.919 36.0525 72.0052C36.2897 72.0569 36.5946 72.0052 36.7641 72.143C37.1537 72.4359 37.662 72.4876 38.0008 72.8667C38.1364 73.0218 38.5091 73.5215 38.543 73.6421C38.6785 74.2796 38.4413 74.6587 37.8653 75.0378C37.3401 75.3824 36.781 75.4858 36.1711 75.4858C35.7984 75.4858 35.4087 75.4858 35.036 75.4685C34.5447 75.4341 34.0703 75.4168 33.6467 75.1067C33.3926 74.9344 33.003 75.0205 32.7997 74.6759C32.0712 74.2968 31.8509 73.6938 32.0373 72.9184C32.0542 72.7978 32.0881 72.7289 32.122 72.6082Z" fill="#A5E830"/>
<path d="M70.7666 23.3814C71.6137 23.5365 72.1558 24.0362 72.6302 24.6392C72.7658 24.8115 72.9521 24.9666 72.986 25.1561C73.1046 25.7075 73.4942 26.1555 73.5281 26.7586C73.562 27.4133 73.6637 28.0681 73.4942 28.7228C73.3079 29.4465 72.8505 29.7738 72.1389 29.6705C71.6306 29.6015 71.2918 29.3086 70.936 28.9468C70.3939 28.3954 70.0551 27.7062 69.8518 26.9826C69.5976 26.121 69.5976 25.1906 69.784 24.2774C69.8518 23.9845 70.072 23.7777 70.3261 23.6054C70.4617 23.5365 70.5972 23.4676 70.7666 23.3814Z" fill="#A5E830"/>
<path d="M63.9729 64.6134C64.3117 65.5438 64.0407 66.3364 63.5155 66.9739C63.0241 67.5597 62.4989 68.1283 61.8213 68.5246C61.0758 68.9382 60.3304 69.3 59.4494 69.1621C59.0258 69.0932 58.67 68.8175 58.6362 68.3868C58.5853 67.8699 58.5345 67.3358 58.9581 66.9222C59.4155 65.8367 60.3473 65.2337 61.2622 64.6479C61.6349 64.4066 62.1093 64.3033 62.5498 64.1999C63.1089 64.0793 63.3122 64.1654 63.9729 64.6134Z" fill="#A5E830"/>
<path d="M66.2092 62.8731C66.1415 62.8042 66.1076 62.8042 66.0906 62.787C65.4468 62.1495 65.5316 61.443 65.8535 60.6849C65.989 60.3575 66.0906 60.0301 66.2601 59.72C66.6667 58.9446 67.3105 58.3933 67.9204 57.7902C68.327 57.3939 68.8522 57.4456 69.2758 57.1699C69.3605 57.1182 69.5299 57.1872 69.6485 57.2216C69.801 57.2733 69.9195 57.3767 70.1059 57.4973C70.1567 57.6179 70.2584 57.7902 70.3092 57.9625C70.36 58.1348 70.4109 58.3416 70.3939 58.5311C70.3092 59.3065 69.9704 59.9957 69.6993 60.7021C69.0216 61.4258 68.4456 62.2356 67.5477 62.7353C67.4121 62.8042 67.2427 62.8731 67.0902 62.8904C66.8022 62.8904 66.4634 62.8731 66.2092 62.8731Z" fill="#A5E830"/>
<path d="M19.3816 16.6617C19.1953 16.6444 19.0089 16.6444 18.8225 16.61C18.4498 16.541 18.1787 16.2998 18.0771 15.9552C17.8738 15.2315 17.9416 14.5423 18.3651 13.8531C18.7378 13.2501 19.2969 12.871 19.8391 12.5092C20.1948 12.2679 20.7031 12.1818 21.1436 12.1129C21.6857 12.0267 22.1262 12.3369 22.482 12.7159C22.5667 12.8021 22.6345 12.9571 22.6345 13.0778C22.6514 13.4913 22.7023 13.922 22.6006 14.3011C22.499 14.6802 22.2448 15.0248 21.9907 15.3349C21.6688 15.7485 21.2961 16.1275 20.737 16.2654C20.3643 16.6789 19.856 16.6272 19.3816 16.6617Z" fill="#A5E830"/>
<path d="M51.8085 73.5214C51.8424 73.4697 51.8933 73.4008 51.9271 73.3319C52.1643 72.6255 52.6895 72.1602 53.2825 71.7812C53.706 71.5227 54.0957 71.1437 54.6378 71.1264C54.9259 71.1092 55.1122 70.7991 55.451 70.8163C55.7729 70.8335 56.0948 70.7818 56.4167 70.7818C56.7047 70.7818 57.0097 70.8163 57.3147 70.8163C57.4841 71.0058 57.6365 71.1781 57.8229 71.3849C57.8229 71.471 57.8399 71.5744 57.789 71.6778C57.501 72.367 57.0266 72.8839 56.4337 73.2974C56.061 73.5559 55.6713 73.8143 55.2478 73.9866C54.6717 74.2106 54.0788 74.3829 53.4689 74.4863C52.7065 74.6069 52.1135 74.314 51.8085 73.5214Z" fill="#A5E830"/>
<path d="M63.7527 13.1984C63.2613 13.2673 62.7192 13.3707 62.2448 12.9744C61.1097 12.5953 60.3473 11.8199 59.7713 10.7861C59.4663 10.2175 59.4155 10.028 59.6019 9.21818C59.7374 9.14926 59.8899 9.09757 60.0254 9.01141C60.3304 8.83911 60.6353 8.80465 60.9572 8.95972C61.0589 9.01141 61.1605 9.06311 61.2622 9.06311C61.9738 9.1148 62.482 9.61447 62.9903 10.028C63.4816 10.4243 63.8204 10.9757 64.1085 11.5787C64.3965 12.2162 64.2948 12.6642 63.8543 13.1294C63.8374 13.1467 63.8204 13.1467 63.7527 13.1984Z" fill="#A5E830"/>
<path d="M27.0902 74.0901C26.6836 74.1073 26.3109 74.0384 25.9043 73.8833C25.4468 73.711 25.0064 73.5559 24.5828 73.3147C23.9559 72.9701 23.5155 72.4532 23.0919 71.8846C22.8378 71.54 23.058 70.9714 23.4985 70.7991C23.9221 70.6268 24.3626 70.4717 24.8369 70.6095C25.1758 70.7129 25.5316 70.7129 25.8704 70.8163C26.8192 71.092 27.6154 71.6089 28.2253 72.4015C28.4117 72.6427 28.4625 72.9529 28.4286 73.263C28.3778 73.6593 28.022 74.0384 27.6493 74.0901C27.4799 74.1245 27.2766 74.0901 27.0902 74.0901Z" fill="#A5E830"/>
<path d="M8.6404 49.4853C8.48792 49.537 8.40321 49.5542 8.33544 49.6059C7.82718 49.9505 7.38669 49.7265 7.03091 49.3819C6.64125 49.0201 6.23464 48.6582 6.18381 48.0724C6.18381 47.9862 6.14993 47.9001 6.09911 47.8484C5.67556 47.2626 5.77721 46.5906 5.82803 45.9358C5.86192 45.5223 6.14993 45.2122 6.40406 44.8848C6.50571 44.7642 6.64125 44.6608 6.7429 44.5746C7.38669 44.3506 7.72553 44.8848 8.16602 45.1605C8.87759 46.1598 9.30113 47.2626 9.08089 48.5204C9.01312 48.8478 8.79288 49.1579 8.6404 49.4853Z" fill="#A5E830"/>
<path d="M75.2054 37.7859C74.9174 37.6309 74.6463 37.4758 74.3922 37.3552C74.2228 37.0795 74.0873 36.8555 73.9517 36.6143C73.9178 36.5626 73.884 36.5281 73.867 36.4764C73.7315 35.9423 73.5959 35.4254 73.4943 34.8912C73.3926 34.3743 73.4435 33.8574 73.6637 33.3577C73.7315 33.2027 73.8162 33.0476 73.7992 32.8925C73.7823 32.5307 74.1042 32.3929 74.2567 32.1689C74.4261 31.9276 74.9513 31.9621 75.2224 32.1861C75.341 32.2895 75.4596 32.4101 75.5612 32.5307C75.9339 33.0304 76.2389 33.5817 76.2728 34.2365C76.3067 34.8395 76.3067 35.4426 76.3067 36.0457C76.3236 36.8038 76.0186 37.3896 75.2054 37.7859Z" fill="#A5E830"/>
<path d="M47.2681 4.97954C47.3359 4.94508 47.4206 4.92785 47.4884 4.87616C48.0813 4.41094 48.7759 4.39371 49.4197 4.56601C50.1652 4.77278 50.9784 4.96231 51.5036 5.66875C51.6561 5.87551 51.8594 6.06504 51.978 6.28904C52.1135 6.53026 52.1474 6.80594 51.961 7.0644C51.6391 7.47792 51.2834 7.82253 50.7243 7.83976C50.3685 7.83976 50.0127 7.87422 49.6739 7.82253C48.9115 7.70192 48.1999 7.409 47.6069 6.87486C47.0479 6.35796 46.8446 5.77213 47.2681 4.97954Z" fill="#A5E830"/>
<path d="M26.8191 9.92462C26.5311 9.70063 26.2601 9.49386 26.0568 9.18372C25.8873 8.94249 25.8535 8.68404 25.972 8.49451C26.3448 7.83976 26.8191 7.28839 27.5307 6.94379C28.2084 6.61641 28.8691 6.58195 29.5637 6.61641C30.1567 6.65087 30.4617 7.08163 30.7158 7.52961C30.8005 7.68469 30.7666 7.9776 30.6819 8.16713C30.377 8.77019 29.9195 9.23541 29.3096 9.58001C28.5133 10.028 27.6662 9.99354 26.8191 9.92462Z" fill="#A5E830"/>
<path d="M68.9369 20.28C68.8013 20.3489 68.6828 20.3834 68.615 20.4523C68.2931 20.7452 67.9881 20.6935 67.5985 20.5212C67.1241 20.3144 66.7175 20.0732 66.3786 19.6769C66.0398 19.2979 65.7349 18.9016 65.5654 18.4019C65.2774 17.5921 65.2435 17.6093 65.2944 16.6272C65.3113 16.6099 65.413 16.5755 65.4977 16.4893C65.5654 16.4204 65.6163 16.317 65.684 16.2309C65.7687 16.1964 65.8365 16.162 65.9212 16.1447C66.5989 15.9724 67.158 16.2826 67.6324 16.6789C68.1914 17.1441 68.5642 17.7644 68.8861 18.4191C69.0047 18.6776 69.0047 19.0049 69.0047 19.3151C69.0047 19.6425 68.9538 19.9698 68.9369 20.28Z" fill="#A5E830"/>
<path d="M39.2376 3.84234C39.0851 4.18695 39.0174 4.51432 38.6785 4.73831C38.3905 4.92785 37.6451 5.32414 37.3062 5.34137C36.7641 5.3586 36.2219 5.34137 35.6967 5.37583C35.2054 5.41029 34.8327 5.15184 34.443 4.91062C33.9348 4.60047 33.9178 3.84234 34.2736 3.48051C34.5786 3.17036 34.8666 2.86022 35.341 2.80853C35.4426 2.7913 35.5612 2.77407 35.6459 2.72238C36.4761 2.32608 37.3062 2.32608 38.1364 2.72238C38.2041 2.75684 38.2888 2.7913 38.3566 2.7913C38.7802 2.86022 39.0174 3.1359 39.1021 3.54943C39.119 3.63558 39.1698 3.72173 39.2376 3.84234Z" fill="#A5E830"/>
<path d="M75.0529 51.26C75.2901 52.2938 75.307 53.2759 74.7988 54.2236C74.6294 54.5509 74.4769 54.8956 74.3075 55.2229C74.0195 55.7915 73.6129 56.1706 73.0877 56.4635C72.7827 56.6358 72.4947 56.5841 72.3253 56.3084C72.2575 56.2051 72.1897 56.05 72.1897 55.9294C72.1897 55.3435 72.122 54.7577 72.2575 54.2063C72.3761 53.7239 72.5116 53.207 72.8335 52.7935C73.0368 52.535 73.1385 52.2249 73.3248 51.9492C73.5112 51.6907 73.7484 51.5529 73.9517 51.3461C74.2397 51.0704 74.6124 51.1221 75.0529 51.26Z" fill="#A5E830"/>
<path d="M8.47099 27.8613C9.11478 28.2921 9.16561 28.8779 9.13172 29.4982C9.13172 29.636 9.11478 29.7738 9.13172 29.9117C9.19949 30.7732 8.72512 31.4107 8.2338 32.031C7.84413 32.5134 7.33588 32.5824 6.81067 32.3928C6.2177 31.7898 6.14994 31.0661 6.2177 30.308C6.23465 29.9806 6.31936 29.6877 6.48878 29.3948C6.6582 29.1019 6.74291 28.7745 6.96315 28.4816C7.36976 27.9302 7.84413 27.689 8.47099 27.8613Z" fill="#A5E830"/>
<path d="M13.0961 64.8374C12.4185 65.1303 11.961 64.6996 11.4697 64.3722C10.6057 63.7864 10.0127 62.9421 9.57221 62.0116C9.35197 61.5464 9.33502 61.0123 9.62304 60.4954C10.0466 60.3575 10.4024 60.3748 10.8429 60.5988C11.7408 61.0812 12.3507 61.8049 12.8928 62.6664C13.2656 63.2522 13.2825 63.838 13.2317 64.4583C13.2147 64.5962 13.13 64.7168 13.0961 64.8374Z" fill="#A5E830"/>
<path d="M77.3401 39.5779C77.8654 40.0431 78.0009 40.5772 77.9839 41.1803C77.967 41.7316 77.9501 42.283 77.9839 42.8344C78.0348 43.5236 77.7129 44.1094 77.4926 44.7125C77.4079 44.9364 77.1538 45.126 76.9505 45.2983C76.781 45.4361 76.4591 45.3327 76.3067 45.1777C76.0186 44.902 75.8492 44.5746 75.8492 44.1611C75.8492 43.2823 75.8662 42.4036 75.8831 41.5249C75.8831 41.1458 76.1542 40.8701 76.2389 40.5428C76.3236 40.2326 76.51 40.0431 76.6963 39.8019C76.8827 39.5434 77.1029 39.5779 77.3401 39.5779Z" fill="#A5E830"/>
<path d="M4.48963 35.8044C5.40449 36.7176 5.4892 37.8721 5.31978 39.061C5.26896 39.44 5.13342 39.8191 4.94706 40.1465C4.81152 40.3877 4.57434 40.5944 4.32021 40.7323C4.01525 40.8874 3.62559 40.7323 3.37146 40.3188C3.16815 39.9569 2.89708 39.5951 2.91403 39.1126C2.94791 38.544 2.93097 37.9582 2.93097 37.3896C2.93097 36.9244 3.1851 36.5453 3.42228 36.2007C3.65947 35.8389 4.01525 35.6149 4.48963 35.8044Z" fill="#A5E830"/>
<path d="M43.7102 77.7256C43.3206 78.053 42.9817 78.3459 42.4904 78.3459C42.3888 78.3459 42.2871 78.3976 42.1855 78.4493C41.5247 78.7767 40.8132 78.7594 40.1186 78.6905C39.7289 78.656 39.3562 78.4148 38.9665 78.3459C38.6955 78.2942 38.526 78.1564 38.3566 77.9841C38.1194 77.7601 38.1025 77.5878 38.3227 77.3638C38.3905 77.2776 38.4752 77.1742 38.5599 77.1398C39.0682 76.9675 39.5087 76.6229 40.0847 76.6401C40.8132 76.6573 41.5417 76.6573 42.2702 76.6401C42.7445 76.6229 43.0834 76.8986 43.4561 77.0881C43.5747 77.1226 43.5747 77.1398 43.7102 77.7256Z" fill="#A5E830"/>
<path d="M6.82762 56.429C6.08218 56.2051 5.6078 55.7226 5.33673 55.0162C4.89624 54.6026 4.93012 53.9651 4.69293 53.4482C4.52351 53.0864 4.52351 52.6384 4.86235 52.311C4.93012 52.2421 4.96401 52.1215 5.01483 52.0526C5.4045 51.9319 5.69251 52.0181 5.98052 52.311C6.47184 52.8279 6.94622 53.3276 7.08175 54.0513C7.09869 54.1891 7.21729 54.2925 7.25117 54.4303C7.33588 54.7233 7.40365 55.0162 7.45448 55.3091C7.52224 55.8088 7.40365 56.2395 6.82762 56.429Z" fill="#A5E830"/>
<path d="M52.0458 76.3989C51.4528 77.0019 50.8429 77.3982 50.0805 77.5188C49.9958 77.5361 49.9111 77.5533 49.8433 77.605C49.0979 78.053 48.2677 77.9151 47.4714 77.9151C47.3698 77.9151 47.2512 77.8807 47.1665 77.829C46.8276 77.6739 46.7937 77.3465 47.0479 77.0536C47.4037 76.6229 47.9458 76.5023 48.4032 76.261C48.5388 76.1921 48.7251 76.2094 48.8776 76.1404C49.7586 75.658 50.7073 75.8131 51.6561 75.8131C51.7747 75.9854 51.8933 76.1577 52.0458 76.3989Z" fill="#A5E830"/>
<path d="M34.9174 77.7945C34.8157 77.8634 34.7988 77.8807 34.7819 77.8807C34.0195 78.1736 33.2401 78.3459 32.4439 77.9841C32.2575 77.8979 32.0203 77.9324 31.8001 77.8979C31.5629 77.8807 31.3426 77.8118 31.1224 77.6567C30.8005 77.4327 30.3939 77.3465 30.1059 77.0536C29.9873 76.933 29.9534 76.7435 30.0381 76.6056C30.1736 76.3989 30.36 76.2093 30.6141 76.2093C31.5798 76.1749 32.5455 76.0543 33.4773 76.5023C33.8331 76.6746 34.2228 76.6918 34.5786 76.9502C34.9005 77.2087 34.9682 77.4327 34.9174 77.7945Z" fill="#A5E830"/>
<path d="M23.4816 5.30691C23.1936 4.30756 23.5494 4.18695 24.1762 3.73896C24.5659 3.46328 25.0402 3.25652 25.5316 3.08421C26.2601 2.80853 26.87 2.77407 27.4799 3.39436C27.4968 3.8768 27.1749 4.20418 26.8361 4.49709C26.4634 4.82447 25.989 4.96231 25.5824 5.22076C25.4977 5.27245 25.3791 5.30691 25.2774 5.32414C24.6845 5.39306 24.0915 5.44475 23.4816 5.30691Z" fill="#A5E830"/>
<path d="M5.03176 24.8977C4.86234 24.243 4.87928 23.5882 5.18424 22.9335C5.28589 22.7439 5.33672 22.5199 5.43837 22.3304C5.54002 22.1409 5.65861 21.9686 5.79415 21.7963C5.94663 21.6067 6.08216 21.4 6.26853 21.2621C6.60736 21.0381 6.96315 21.0037 7.36975 21.2793C7.52223 21.8307 7.53917 22.3993 7.23422 22.9851C7.03091 23.3814 6.89538 23.8294 6.65819 24.2257C6.57348 24.3808 6.04828 24.9149 5.94663 24.9322C5.64167 25.0528 5.35366 25.0872 5.03176 24.8977Z" fill="#A5E830"/>
<path d="M12.7234 14.146C12.9606 14.7491 12.9098 15.3177 12.5371 15.8518C12.3507 16.1103 12.2491 16.4032 12.0288 16.6616C11.7747 16.9718 11.402 17.0752 11.1478 17.3508C11.1139 17.3853 11.0631 17.4025 10.9954 17.4198C10.6735 17.4715 10.3177 17.5576 10.0805 17.2992C9.82635 17.0407 9.89412 16.6789 9.99577 16.3687C10.1144 16.0413 10.2499 15.714 10.4532 15.4383C10.7751 14.9731 11.1817 14.6112 11.6222 14.2666C11.961 14.0082 12.3338 14.0599 12.7234 14.146Z" fill="#A5E830"/>
<path d="M76.0864 27.2927C75.5781 27.0342 75.2901 26.6035 75.0191 26.121C74.6633 25.518 74.6124 24.8288 74.3414 24.2257C74.2397 24.019 74.2567 23.7433 74.2736 23.502C74.2906 23.3297 74.3922 23.1402 74.5108 23.0024C74.6802 22.7956 74.9682 22.7784 75.1546 22.9851C75.4765 23.347 75.7645 23.7088 76.0017 24.1396C76.3066 24.7082 76.3575 25.3284 76.5777 25.9143C76.7641 26.4139 76.7132 26.9481 76.0864 27.2927Z" fill="#A5E830"/>
<path d="M16.0441 68.7314C16.654 68.6108 17.2131 68.5591 17.7891 68.9899C18.1787 69.3 18.6362 69.524 19.0089 69.8858C19.3647 70.2304 19.5002 70.644 19.7543 71.0575C19.568 71.247 19.3986 71.4193 19.2461 71.5744C18.5345 71.4882 17.6874 71.0919 17.1453 70.6095C16.8403 70.3338 16.6031 70.0065 16.2982 69.7308C15.9932 69.4551 15.9424 69.1449 16.0441 68.7314Z" fill="#A5E830"/>
<path d="M58.2465 6.11674C57.8568 6.39242 57.518 6.39242 57.1114 6.3235C56.5862 6.22012 56.0779 6.06505 55.6374 5.7549C55.2647 5.51368 54.9259 5.20353 54.6379 4.85893C54.3668 4.53155 54.5193 4.08357 54.9259 3.94573C55.0784 3.89403 55.2478 3.82511 55.3833 3.84234C56.4506 4.04911 57.4163 4.42817 58.1279 5.32415C58.3142 5.5826 58.2803 5.82382 58.2465 6.11674Z" fill="#A5E830"/>
<path d="M19.2122 7.85699C19.3986 8.08098 19.551 8.23605 19.7035 8.40836C19.6358 9.08034 19.2122 9.52832 18.7717 9.94185C18.399 10.3037 17.8907 10.4415 17.4672 10.6828C17.213 10.8378 16.8912 10.7861 16.5693 10.6483C16.3321 10.1486 16.3998 9.71786 16.7726 9.25264C17.2808 8.61512 17.9416 8.25328 18.6362 7.90868C18.7887 7.82253 19.0089 7.87422 19.2122 7.85699Z" fill="#A5E830"/>
<path d="M74.8835 56.6013C75.1885 57.0493 75.1546 57.4801 74.9683 57.8764C74.748 58.376 74.5278 58.8585 74.2397 59.3237C73.9856 59.7545 73.6468 60.1508 73.3418 60.5471C73.2402 60.6677 73.1046 60.7538 72.9521 60.8227C72.7658 60.9261 72.5286 60.7883 72.5455 60.5815C72.5625 60.2369 72.5455 59.8406 72.6811 59.5305C73.0707 58.7034 73.4773 57.9108 74.1042 57.2216C74.3414 56.9632 74.6125 56.8426 74.8835 56.6013Z" fill="#A5E830"/>
<path d="M64.2101 68.9037C64.4473 69.076 64.515 69.2483 64.4642 69.4551C64.4134 69.6274 64.3626 69.8169 64.244 69.9548C63.7188 70.5923 63.0919 71.1264 62.3634 71.5227C62.0246 71.7122 61.6349 71.7295 61.2622 71.6605C61.1944 71.6433 61.0758 71.5055 61.0758 71.4365C61.0927 71.1953 61.1436 70.9886 61.313 70.7818C62.0923 69.8514 63.0072 69.1622 64.2101 68.9037Z" fill="#A5E830"/>
<path d="M26.6667 75.9337C26.6497 76.1404 26.6497 76.33 26.6328 76.5367C26.1076 76.6573 25.6502 76.6573 25.1927 76.4333C25.0741 76.3817 24.9555 76.3127 24.82 76.2955C24.5489 76.2438 24.2948 76.1921 24.1084 75.9509C24.0407 75.882 23.9221 75.8475 23.8204 75.8131C23.3291 75.6408 22.9564 75.3134 22.77 74.7792C22.8378 74.5725 23.0411 74.5208 23.2275 74.5208C23.6341 74.5208 24.0407 74.5208 24.3964 74.7448C24.4642 74.7965 24.532 74.8482 24.6167 74.8654C25.3113 74.9515 25.8365 75.3823 26.3956 75.7786C26.4634 75.8475 26.565 75.882 26.6667 75.9337Z" fill="#A5E830"/>
<path d="M59.0258 73.6765C59.0428 73.9694 59.0428 74.1589 59.0597 74.2968C59.0089 74.3829 58.975 74.4346 58.9411 74.4691C58.3312 74.9515 57.6366 75.2961 56.9928 75.6924C56.9081 75.7441 56.7895 75.7613 56.6878 75.7786C56.4168 75.813 56.1626 75.8992 55.9254 76.037C55.6713 76.1921 55.3833 76.261 55.0445 76.1576C55.0445 75.9336 55.0445 75.7269 55.0445 75.5373C56.1965 74.5897 57.4841 74.0039 59.0258 73.6765Z" fill="#A5E830"/>
<path d="M43.2021 0.740902C43.7273 0.740902 44.1847 0.758132 44.6421 0.740902C45.1334 0.723672 45.4045 1.25781 45.9127 1.24058C45.9636 1.4818 45.9975 1.68857 46.0483 1.8781C45.4892 2.49839 44.8115 2.53285 44.1508 2.34331C43.5917 2.18824 42.914 2.08486 42.626 1.36119C42.8124 1.15443 42.9988 0.964895 43.2021 0.740902Z" fill="#A5E830"/>
<path d="M77.4248 50.8292C77.2554 50.812 77.069 50.7775 76.8827 50.7431C76.6963 50.2606 76.7471 49.8126 76.8657 49.3646C76.9166 49.2096 77.0013 49.0717 77.0351 48.8994C77.1029 48.572 77.1029 48.2447 77.2215 47.9345C77.3231 47.6416 77.5434 47.3659 77.7297 47.0386C77.8483 47.0041 78.0347 46.9696 78.1872 46.9352C78.2549 47.0041 78.3227 47.0213 78.3396 47.073C78.4582 47.6244 78.4752 48.193 78.3058 48.6927C78.0686 49.4336 77.933 50.2089 77.4248 50.8292Z" fill="#A5E830"/>
<path d="M77.6281 30.756C77.8653 30.7732 78.0347 30.7904 78.1872 30.7904C78.255 30.8594 78.3058 30.8938 78.3227 30.9455C78.4244 31.2212 78.4244 31.5313 78.6277 31.7898C78.7124 31.8759 78.7124 32.0482 78.7293 32.1861C78.7463 32.7375 78.7632 33.2888 78.7632 33.8402C78.7632 33.9436 78.7293 34.0642 78.7124 34.1676C78.6616 34.3743 78.4413 34.4605 78.255 34.3399C78.1533 34.271 78.0347 34.1676 77.967 34.0642C77.5095 33.0993 77.3909 31.9621 77.6281 30.756Z" fill="#A5E830"/>
<path d="M2.23634 47.0558C1.55866 46.2115 1.60948 45.2466 1.71113 44.2989C1.8975 44.0404 2.13468 44.0921 2.38881 44.1438C2.4227 44.1783 2.45658 44.2128 2.49047 44.2644C2.99873 45.0054 2.99873 45.8669 2.9479 46.7112C2.93096 47.0731 2.81236 47.1592 2.4227 47.1075C2.35493 47.1075 2.27022 47.0558 2.23634 47.0558Z" fill="#A5E830"/>
<path d="M67.8187 66.0435C67.5138 65.6472 67.5815 65.2337 67.8187 64.8891C68.1914 64.3722 68.5811 63.8553 69.1063 63.4762C69.4451 63.235 69.7332 63.1833 70.0381 63.4934C69.8348 64.1137 69.5807 64.6823 69.0894 65.1131C68.7166 65.4577 68.4117 65.8712 67.8187 66.0435Z" fill="#A5E830"/>
<path d="M79.3562 41.5421C78.9496 40.8012 79.0851 40.0775 79.0851 39.3883C79.0851 38.1305 79.1021 38.1305 79.3901 37.6481C79.7967 37.7859 80 38.0616 80 38.4923C80 38.992 80.0169 39.4745 80 39.9741C79.9661 40.7495 79.9661 40.7667 79.3562 41.5421Z" fill="#A5E830"/>
<path d="M65.6671 10.0452C66.0398 9.75232 66.4464 9.83847 66.7683 10.0625C67.2258 10.3898 67.6154 10.8378 67.9712 11.2858C68.2254 11.6132 68.1915 11.975 67.9035 12.3713C65.989 11.303 66.1923 10.9929 65.6671 10.0452Z" fill="#A5E830"/>
<path d="M2.40575 32.0482C2.01609 32.031 1.88055 31.7898 1.81279 31.5141C1.72808 31.2212 1.76196 30.911 1.84667 30.6181C1.94832 30.3252 2.01609 30.0495 2.11774 29.7566C2.21939 29.4637 2.47352 29.3086 2.71071 29.1536C2.74459 29.1363 2.81236 29.1708 2.88013 29.188C3.04955 29.8083 3.01567 30.4458 2.89707 31.0489C2.8293 31.4279 2.57517 31.7381 2.40575 32.0482Z" fill="#A5E830"/>
<path d="M34.2058 0.585828C33.8501 0.982124 33.4435 1.24058 32.8844 1.20612C32.4608 1.18889 32.0203 1.29227 31.5629 1.10274C31.5968 0.895972 31.6137 0.68921 31.6307 0.516907C31.7154 0.447986 31.7662 0.413526 31.8001 0.396295C32.0881 0.310144 32.3592 0.206763 32.6472 0.137842C32.9352 0.068921 33.2232 0 33.5112 0C33.9009 0 34.1381 0.189533 34.2058 0.585828Z" fill="#A5E830"/>
<path d="M40.1524 79.8622C39.3901 80.0517 37.6281 80.0345 36.6794 79.8277C36.7133 79.7071 36.7302 79.552 36.798 79.5003C36.9335 79.3797 37.1199 79.2763 37.2893 79.2419C38.238 79.0868 39.1529 79.1385 40.0508 79.5176C40.1355 79.5693 40.1355 79.5693 40.1524 79.8622Z" fill="#A5E830"/>
<path d="M72.5456 18.712C72.1051 18.8499 71.8509 18.712 71.5798 18.4191C71.1902 17.9884 70.8683 17.5404 70.8683 16.9373C70.8683 16.8512 70.8513 16.7478 70.9022 16.6961C70.9869 16.61 71.1055 16.5066 71.2241 16.5066C71.3427 16.5066 71.4951 16.5755 71.5798 16.6616C71.9695 17.0062 72.5794 17.9539 72.5964 18.4364C72.5964 18.5053 72.5625 18.5914 72.5456 18.712Z" fill="#A5E830"/>
<path d="M10.8768 65.9918C11.6391 66.302 12.1305 66.8878 12.6218 67.4736C12.7404 67.6287 12.7912 67.8699 12.842 68.0595C12.859 68.1111 12.7912 68.2318 12.7404 68.2662C12.6557 68.3007 12.5201 68.3351 12.4354 68.2834C11.9272 67.9905 11.0292 67.0946 10.7412 66.6121C10.6057 66.4053 10.6904 66.1986 10.8768 65.9918Z" fill="#A5E830"/>
<path d="M47.1834 78.8111C47.2511 79.2591 47.0478 79.4142 46.7768 79.5176C46.6073 79.5692 46.404 79.5692 46.2177 79.5865C45.6078 79.6382 44.9809 79.5865 44.388 79.7932C44.371 79.7932 44.3371 79.7932 44.3033 79.7932C44.1508 79.7932 44.0491 79.6899 44.0152 79.552C43.9644 79.3969 44.0152 79.2591 44.1677 79.2246C44.4219 79.1557 44.6929 79.1213 44.964 79.0868C45.3028 79.0523 45.6586 79.0351 45.9805 78.88C46.3532 78.725 46.7598 78.7594 47.1834 78.8111Z" fill="#A5E830"/>
<path d="M19.6696 74.0383C19.4155 74.0555 19.1953 74.1417 19.0767 74.0727C18.6023 73.7971 18.094 73.5903 17.6535 73.2285C17.4333 73.039 17.1961 72.8494 16.9589 72.6427C16.9759 72.5048 16.9928 72.3498 17.0097 72.1775C17.8907 72.4015 18.5684 72.9356 19.263 73.4008C19.4325 73.5042 19.5172 73.7626 19.6696 74.0383Z" fill="#A5E830"/>
<path d="M2.81236 53.2242C2.64294 53.2242 2.47352 53.2242 2.3041 53.2242C2.11774 52.8279 1.91444 52.4833 1.79584 52.1043C1.69419 51.7424 1.69419 51.3461 1.66031 50.9671C1.66031 50.9154 1.74502 50.812 1.79584 50.7947C1.88055 50.7775 2.04997 50.812 2.08386 50.8637C2.21939 51.2083 2.54129 51.4667 2.57518 51.8803C2.59212 52.1215 2.71071 52.3455 2.81236 52.5695C2.88013 52.759 2.93096 52.9658 2.81236 53.2242Z" fill="#A5E830"/>
<path d="M6.89539 60.9261C6.52267 60.8572 6.23465 60.7538 6.14994 60.3575C5.77722 60.0129 5.6925 59.5132 5.43837 59.0997C5.40449 59.0308 5.42143 58.8757 5.47226 58.8068C5.52308 58.7379 5.67556 58.7207 5.76027 58.7379C5.87887 58.7723 6.03135 58.824 6.09911 58.9102C6.38713 59.3582 6.70903 59.7889 6.94622 60.2714C7.06481 60.4954 7.08175 60.7021 6.89539 60.9261Z" fill="#A5E830"/>
<path d="M0.101647 39.0093C-0.0508308 38.2339 -4.94625e-06 37.4585 0.0847049 36.6659C0.203299 36.6315 0.288008 36.5798 0.338834 36.6143C0.47437 36.7004 0.626848 36.7866 0.694615 36.9072C0.965687 37.3896 0.813209 38.5613 0.440486 38.992C0.406602 39.0265 0.338834 39.0437 0.288008 39.0437C0.237183 39.061 0.186357 39.0437 0.101647 39.0093Z" fill="#A5E830"/>
<path d="M32.8505 79.328C32.8166 79.3797 32.7658 79.4831 32.715 79.5003C32.5794 79.5175 32.4439 79.5348 32.3253 79.4831C31.7662 79.2418 31.1902 79.1729 30.5972 79.1212C30.2923 79.104 30.1059 78.9317 30.0212 78.6388C29.9873 78.5182 30.1228 78.3459 30.2414 78.3631C30.2753 78.3631 30.2923 78.3631 30.3261 78.3804C30.9022 78.656 31.5121 78.725 32.122 78.7594C32.4269 78.7766 32.5964 78.9834 32.7827 79.1729C32.8166 79.1902 32.8166 79.2591 32.8505 79.328Z" fill="#A5E830"/>
<path d="M77.7637 52.4144C77.967 52.759 77.967 53.0347 77.8315 53.207C77.6451 53.4482 77.6281 53.6894 77.5604 53.9651C77.5265 54.1202 77.4926 54.3269 77.374 54.4131C77.1707 54.6026 77.1538 54.8438 77.069 55.0678C77.0352 55.1884 76.9504 55.2746 76.8318 55.2229C76.7471 55.1884 76.6794 55.0678 76.6624 54.9817C76.6455 54.7921 76.6285 54.5681 76.7132 54.4131C77.0013 53.8789 77.0352 53.207 77.5265 52.759C77.5943 52.6901 77.6451 52.5867 77.7637 52.4144Z" fill="#A5E830"/>
<path d="M64.5828 71.4193C64.0576 72.0224 63.4816 72.4359 62.8886 72.8494C62.6684 73.0045 62.4481 73.1424 62.2109 73.2802C62.177 73.2974 62.0923 73.2802 62.0584 73.2457C62.0076 73.194 61.9568 73.0734 61.9907 73.039C62.1093 72.8667 62.2109 72.6427 62.3803 72.5393C62.8547 72.2464 63.1766 71.7467 63.7526 71.5916C63.8712 71.5572 63.939 71.4021 64.0407 71.316C64.1762 71.1781 64.2101 71.1781 64.5828 71.4193Z" fill="#A5E830"/>
<path d="M50.0974 0.413527C50.5548 0.327376 50.9276 0.310146 51.3172 0.534139C51.5375 0.671981 51.8085 0.706441 52.0966 0.809823C52.1135 0.895974 52.1643 0.999355 52.1643 1.10274C52.1135 1.4818 51.978 1.56795 51.6222 1.46457C51.3172 1.37842 51.0123 1.29227 50.7073 1.18889C50.3685 1.08551 50.1482 0.878744 50.0974 0.413527Z" fill="#A5E830"/>
<path d="M69.3265 66.6983C69.3435 66.8189 69.3604 66.8878 69.3435 66.9222C68.9877 67.4736 68.4964 67.9044 68.022 68.3351C67.9712 68.3696 67.8357 68.3696 67.8018 68.3351C67.751 68.2662 67.6832 68.0939 67.7171 68.0594C68.1237 67.5253 68.5641 67.0256 69.1063 66.6466C69.1232 66.5949 69.2587 66.6638 69.3265 66.6983Z" fill="#A5E830"/>
</g>
<defs>
<clipPath id="clip0_227_6224">
<rect width="80" height="80" fill="white"/>
</clipPath>
</defs>
</svg>
